<svg xmlns="http://www.w3.org/2000/svg" xmlns:xlink="http://www.w3.org/1999/xlink" width="63.426" height="63.426" viewBox="0 0 63.426 63.426">
  <defs>
    <filter id="Path_1148" x="0" y="0" width="63.426" height="63.426" filterUnits="userSpaceOnUse">
      <feOffset input="SourceAlpha"/>
      <feGaussianBlur result="blur"/>
      <feFlood flood-color="#fc5312"/>
      <feComposite operator="in" in2="blur"/>
      <feComposite in="SourceGraphic"/>
    </filter>
  </defs>
  <g id="Waveless-Color" transform="translate(-50.354 -50)">
    <g transform="matrix(1, 0, 0, 1, 50.35, 50)" filter="url(#Path_1148)">
      <path id="Path_1148-2" data-name="Path 1148" d="M60.845,65.961a26.431,26.431,0,0,1,42.529.115,7.614,7.614,0,0,0-.56.647,15.037,15.037,0,0,0-2.075,4.1,85.063,85.063,0,0,0-2.641,10.6l-.067.33a91,91,0,0,1-2.3,9.6,12.161,12.161,0,0,1-1.061,2.455,12.172,12.172,0,0,1-1.114-2.485A91.153,91.153,0,0,1,91.078,81.4l-.026-.124h0a94.17,94.17,0,0,0-2.626-10.433,15.776,15.776,0,0,0-1.976-4.067,5.183,5.183,0,0,0-4.142-2.362,5.244,5.244,0,0,0-4.148,2.336,16.005,16.005,0,0,0-2.043,4.055A92.558,92.558,0,0,0,73.3,81.371l-.086.38h0c-.822,3.642-1.591,7.048-2.463,9.583a15.282,15.282,0,0,1-.932,2.231,15.3,15.3,0,0,1-.908-2.215c-.837-2.481-1.57-5.791-2.358-9.346l-.138-.622A87.469,87.469,0,0,0,63.611,70.8a15.628,15.628,0,0,0-2.093-4.073A7.522,7.522,0,0,0,60.845,65.961ZM57.93,70.936a16.287,16.287,0,0,1,.723,1.693,83.09,83.09,0,0,1,2.605,9.9l.163.734c.761,3.439,1.553,7.016,2.485,9.779a16.622,16.622,0,0,0,1.865,4.028,4.591,4.591,0,0,0,8.09.011,16.71,16.71,0,0,0,1.891-4.025,102.4,102.4,0,0,0,2.586-9.982h0l.121-.535a88.2,88.2,0,0,1,2.622-9.915,11.954,11.954,0,0,1,1.212-2.565,11.911,11.911,0,0,1,1.141,2.527,91.168,91.168,0,0,1,2.475,9.924l.026.124h0a94.108,94.108,0,0,0,2.626,10.433,15.762,15.762,0,0,0,1.976,4.067,4.8,4.8,0,0,0,8.28-.021,15.593,15.593,0,0,0,1.923-4.076A93.212,93.212,0,0,0,103.171,83h0l.1-.509a80.716,80.716,0,0,1,2.443-9.886c.2-.562.4-1.041.584-1.444a26.427,26.427,0,1,1-48.371-.22ZM82.067,50A31.713,31.713,0,1,0,113.78,81.713,31.713,31.713,0,0,0,82.067,50Zm.6,19.616,0,0a.073.073,0,0,0-.019.013Zm-.727,0a.082.082,0,0,1-.018-.013A.075.075,0,0,1,81.941,69.616Zm12.337,24.7A.112.112,0,0,1,94.3,94.3C94.284,94.309,94.278,94.313,94.278,94.312Zm.768-.021a.086.086,0,0,1,.019.013A.074.074,0,0,1,95.047,94.291Zm-25.774.069a.106.106,0,0,1,.023-.019A.119.119,0,0,1,69.273,94.36Zm1.07-.014a.109.109,0,0,1,.023.019S70.358,94.361,70.343,94.346Z" transform="translate(-50.35 -50)" fill="#fc5312" fill-rule="evenodd"/>
    </g>
  </g>
</svg>
