<svg xmlns="http://www.w3.org/2000/svg" xmlns:xlink="http://www.w3.org/1999/xlink" width="47" height="47" viewBox="0 0 47 47">
  <defs>
    <filter id="Rectangle_103" x="0" y="0" width="47" height="47" filterUnits="userSpaceOnUse">
      <feOffset dy="3" input="SourceAlpha"/>
      <feGaussianBlur stdDeviation="3" result="blur"/>
      <feFlood flood-opacity="0.161"/>
      <feComposite operator="in" in2="blur"/>
      <feComposite in="SourceGraphic"/>
    </filter>
  </defs>
  <g id="Group_649" data-name="Group 649" transform="translate(-15 -348)">
    <g transform="matrix(1, 0, 0, 1, 15, 348)" filter="url(#Rectangle_103)">
      <rect id="Rectangle_103-2" data-name="Rectangle 103" width="29" height="29" rx="14.5" transform="translate(9 6)" fill="#fff"/>
    </g>
    <path id="Icon_ionic-logo-google" data-name="Icon ionic-logo-google" d="M19.819,10.392l-.084-.355H12.025V13.3h4.607a4.611,4.611,0,0,1-4.511,3.467,5.4,5.4,0,0,1-3.63-1.447,5.183,5.183,0,0,1-1.546-3.658A5.346,5.346,0,0,1,8.462,8.009,5.165,5.165,0,0,1,12.069,6.6a4.7,4.7,0,0,1,3.068,1.2l2.319-2.307a8.206,8.206,0,0,0-5.463-2.1h0A8.446,8.446,0,0,0,6.015,5.813a8.412,8.412,0,0,0-2.359,5.854,8.327,8.327,0,0,0,2.267,5.758,8.65,8.65,0,0,0,6.237,2.53,7.693,7.693,0,0,0,5.6-2.355,8.273,8.273,0,0,0,2.152-5.73A9.541,9.541,0,0,0,19.819,10.392Z" transform="translate(26.344 356.618)" fill="#fc5312"/>
  </g>
</svg>
