<svg xmlns="http://www.w3.org/2000/svg" width="19.34" height="24.189" viewBox="0 0 19.34 24.189">
  <g id="Icon_ionic-ios-notifications" data-name="Icon ionic-ios-notifications" transform="translate(-6.761 -3.93)">
    <path id="Path_1159" data-name="Path 1159" d="M16.765,30.712a2.114,2.114,0,0,0,2.157-2.376H14.6A2.114,2.114,0,0,0,16.765,30.712Z" transform="translate(-0.349 -2.593)" fill="#fc5312"/>
    <path id="Path_1160" data-name="Path 1160" d="M25.856,22.86c-.931-1.3-2.763-2.057-2.763-7.864,0-5.961-2.491-8.356-4.812-8.931-.218-.057-.375-.134-.375-.377V5.5a1.478,1.478,0,1,0-2.95,0v.185c0,.236-.157.319-.375.377C12.253,6.646,9.768,9.035,9.768,15c0,5.807-1.832,6.561-2.763,7.864a1.274,1.274,0,0,0,.961,2.032H24.9A1.275,1.275,0,0,0,25.856,22.86Z" transform="translate(0 0)" fill="#fc5312"/>
  </g>
</svg>
