<svg xmlns="http://www.w3.org/2000/svg" width="25.34" height="25.34" viewBox="0 0 25.34 25.34">
  <g id="Group_794" data-name="Group 794" transform="translate(-3269.663 -769.018)">
    <path id="Icon_awesome-user-circle" data-name="Icon awesome-user-circle" d="M12.67.562a12.67,12.67,0,1,0,12.67,12.67A12.668,12.668,0,0,0,12.67.562Zm0,4.9a4.5,4.5,0,1,1-4.5,4.5A4.5,4.5,0,0,1,12.67,5.467Zm0,17.575a9.79,9.79,0,0,1-7.484-3.484A5.7,5.7,0,0,1,10.218,16.5a1.25,1.25,0,0,1,.363.056,6.764,6.764,0,0,0,2.09.353,6.739,6.739,0,0,0,2.09-.353,1.25,1.25,0,0,1,.363-.056,5.7,5.7,0,0,1,5.032,3.055A9.79,9.79,0,0,1,12.67,23.042Z" transform="translate(3269.663 768.456)" fill="#fc5312"/>
  </g>
</svg>
