<svg xmlns="http://www.w3.org/2000/svg" width="26" height="26" viewBox="0 0 26 26">
  <g id="Group_652" data-name="Group 652" transform="translate(-3269.663 -769.018)">
    <path id="Icon_awesome-user-circle" data-name="Icon awesome-user-circle" d="M13,.563a13,13,0,1,0,13,13A13,13,0,0,0,13,.563Zm0,5.032a4.613,4.613,0,1,1-4.613,4.613A4.613,4.613,0,0,1,13,5.595Zm0,18.032a10.045,10.045,0,0,1-7.679-3.575,5.844,5.844,0,0,1,5.163-3.135,1.283,1.283,0,0,1,.372.058A6.94,6.94,0,0,0,13,17.337a6.914,6.914,0,0,0,2.144-.362,1.283,1.283,0,0,1,.372-.058,5.844,5.844,0,0,1,5.163,3.135A10.045,10.045,0,0,1,13,23.627Z" transform="translate(3269.663 768.456)" fill="#fff"/>
  </g>
</svg>
