<svg xmlns="http://www.w3.org/2000/svg" width="17.302" height="19.08" viewBox="0 0 17.302 19.08">
  <g id="Icon_feather-share-2" data-name="Icon feather-share-2" transform="translate(-3.85 -2.35)">
    <path id="Path_1153" data-name="Path 1153" d="M27.834,5.667A2.667,2.667,0,1,1,25.167,3,2.667,2.667,0,0,1,27.834,5.667Z" transform="translate(-7.332 0)" fill="none" stroke="#fc5312" stroke-linecap="round" stroke-linejoin="round" stroke-width="1.3"/>
    <path id="Path_1154" data-name="Path 1154" d="M9.834,16.167A2.667,2.667,0,1,1,7.167,13.5,2.667,2.667,0,0,1,9.834,16.167Z" transform="translate(0 -4.277)" fill="none" stroke="#fc5312" stroke-linecap="round" stroke-linejoin="round" stroke-width="1.3"/>
    <path id="Path_1155" data-name="Path 1155" d="M27.834,26.667A2.667,2.667,0,1,1,25.167,24,2.667,2.667,0,0,1,27.834,26.667Z" transform="translate(-7.332 -8.554)" fill="none" stroke="#fc5312" stroke-linecap="round" stroke-linejoin="round" stroke-width="1.3"/>
    <path id="Path_1156" data-name="Path 1156" d="M12.885,20.265,18.957,23.8" transform="translate(-3.415 -7.032)" fill="none" stroke="#fc5312" stroke-linecap="round" stroke-linejoin="round" stroke-width="1.3"/>
    <path id="Path_1157" data-name="Path 1157" d="M18.948,9.765,12.885,13.3" transform="translate(-3.415 -2.756)" fill="none" stroke="#fc5312" stroke-linecap="round" stroke-linejoin="round" stroke-width="1.3"/>
  </g>
</svg>
