<svg xmlns="http://www.w3.org/2000/svg" width="14.606" height="11.185" viewBox="0 0 14.606 11.185">
  <path id="Icon_ionic-ios-checkmark" data-name="Icon ionic-ios-checkmark" d="M24.963,13.515,23.77,12.288a.257.257,0,0,0-.19-.081h0a.246.246,0,0,0-.19.081l-8.275,8.336L12.1,17.612a.262.262,0,0,0-.38,0L10.516,18.82a.27.27,0,0,0,0,.387l3.8,3.8a1.2,1.2,0,0,0,.794.387,1.259,1.259,0,0,0,.787-.373H15.9L24.97,13.9A.29.29,0,0,0,24.963,13.515Z" transform="translate(-10.434 -12.206)" fill="#fc5312"/>
</svg>
