<svg xmlns="http://www.w3.org/2000/svg" width="22.635" height="22.641" viewBox="0 0 22.635 22.641">
  <path id="Icon_ionic-ios-settings" data-name="Icon ionic-ios-settings" d="M25.266,15.817A2.913,2.913,0,0,1,27.135,13.1a11.545,11.545,0,0,0-1.4-3.366,2.952,2.952,0,0,1-1.185.253A2.906,2.906,0,0,1,21.895,5.9a11.51,11.51,0,0,0-3.36-1.4,2.91,2.91,0,0,1-5.435,0A11.545,11.545,0,0,0,9.734,5.9,2.906,2.906,0,0,1,7.076,9.988a2.856,2.856,0,0,1-1.185-.253A11.8,11.8,0,0,0,4.5,13.106a2.912,2.912,0,0,1,.006,5.435,11.545,11.545,0,0,0,1.4,3.366A2.907,2.907,0,0,1,9.74,25.744a11.613,11.613,0,0,0,3.366,1.4,2.9,2.9,0,0,1,5.423,0,11.545,11.545,0,0,0,3.366-1.4,2.91,2.91,0,0,1,3.837-3.837,11.613,11.613,0,0,0,1.4-3.366A2.927,2.927,0,0,1,25.266,15.817Zm-9.4,4.71a4.716,4.716,0,1,1,4.716-4.716A4.714,4.714,0,0,1,15.871,20.527Z" transform="translate(-4.5 -4.5)" fill="#fff"/>
</svg>
